<?xml version="1.0" encoding="utf-8"?>
<!-- Generator: Adobe Illustrator 18.1.1, SVG Export Plug-In . SVG Version: 6.00 Build 0)  -->
<svg version="1.1" id="Layer_1" xmlns="http://www.w3.org/2000/svg" xmlns:xlink="http://www.w3.org/1999/xlink" x="0px" y="0px"
	 viewBox="177 24.3 484 297" enable-background="new 177 24.3 484 297" xml:space="preserve">
<g>
	<g>
		<defs>
			<path id="SVGID_1_" d="M286,301.5c-3.6,0-6.9-1.2-9.6-3.1l-7.7,9.6c12.7,0.1,25.4,0.1,38.2,0.1l-10-10.9
				C294,299.9,290.2,301.5,286,301.5 M545.7,299.7c-0.9,0-1.8-0.1-2.6-0.2l-7,8.7c9.5,0,19.1-0.1,28.6-0.2l-9.6-11.3
				C552.5,298.5,549.3,299.7,545.7,299.7 M302.2,287.3c-0.2,1.6-0.7,3.1-1.4,4.5l15,16.4c27.6,0,55.2,0,82.8,0l0.7-23.2
				c-5.1-0.7-9.5-3.6-12-7.9L302.2,287.3z M405.9,284.6l-0.7,23.5c4.8,0,9.5,0,14.3,0V308c36,0,72.1,0.2,108.1,0.2l9-11.3
				c-3.8-2.5-6.4-6.5-7.2-11.2l-113.7-9.1C413.8,280.4,410.2,283.4,405.9,284.6 M626.2,253.8c-3.1,0-5.9-0.9-8.4-2.4l-55.9,34.3
				c-0.3,2.2-1.2,4.3-2.3,6.1l13.7,16.1c3.5,0,6.9,0,10.4-0.1c35.3-0.5,65-28.7,71-63.5c-4.3-0.8-8.7-1.8-12.8-2.7
				C640.1,248.6,633.8,253.8,626.2,253.8 M181.5,233.8c1.6,41,34,73.8,75.6,74.2c1.1,0,2.1,0,3.1,0l11.7-14.6
				c-1.5-2.5-2.4-5.3-2.4-8.4c0-1.6,0.3-3.2,0.8-4.7l-56.8-40.5c-2.8,2.1-6.2,3.4-9.9,3.4c-7,0-12.9-4.4-15.3-10.5
				C186.1,233.1,183.9,233.4,181.5,233.8 M415.8,260.9c1.3,2.4,2.1,5,2.1,7.9c0,0.4-0.1,0.9-0.1,1.3l112.1,9
				c0.5-1.9,1.3-3.6,2.3-5.2l-49.9-41.7c-1.5,0.5-3.1,0.8-4.7,0.8c-4.4,0-8.4-1.8-11.3-4.6L415.8,260.9z M488.5,228.8l48.5,40.5
				c2.5-1.6,5.5-2.5,8.7-2.5c7.4,0,13.5,4.9,15.6,11.5l51.4-31.6c-1.8-2.6-2.9-5.8-3-9.2l-118.4-12.1
				C490.6,226.7,489.6,227.8,488.5,228.8 M357.6,200.6c-1.4,0-2.7-0.2-4-0.6l-55.8,73.5c1.9,2,3.3,4.4,4,7.1l83.4-10
				c-0.1-0.6-0.2-1.2-0.2-1.9c0-5.7,2.9-10.7,7.3-13.7l-30-55.3C360.8,200.2,359.3,200.6,357.6,200.6 M635.1,223.5
				c3.9,2.5,6.6,6.6,7.3,11.3c4.2,1,8.8,2.1,13.3,2.9c0.2-1.9,0.3-3.8,0.3-5.7c0.1-13.8-3.6-26.9-10-38.4L635.1,223.5z M368.2,196.6
				l30.4,56c0.9-0.2,1.9-0.3,2.9-0.3c3.8,0,7.2,1.3,10,3.5l51-32.8c-0.8-1.8-1.2-3.7-1.3-5.8l-89.6-24.7
				C370.7,194.1,369.5,195.5,368.2,196.6 M220,226.3c0,0.2,0.1,0.3,0.1,0.5c0,2.9-0.8,5.7-2.2,8.1l55.6,39.7c3-3.6,7.5-5.9,12.5-5.9
				c2.2,0,4.4,0.5,6.3,1.3l55.2-72.8c-1.7-1.3-3.1-2.9-4.1-4.7L220,226.3z M493.8,214c0.1,0.8,0.3,1.7,0.3,2.5s-0.1,1.6-0.2,2.4
				l117.2,12c1-2.4,2.6-4.5,4.6-6.2l-37.5-34.2c-2.9,2.7-6.8,4.4-11.1,4.4c-5.1,0-9.5-2.3-12.5-5.9L493.8,214z M270.6,167.9
				c-3.4,0-6.5-1-9.1-2.7l-46.7,49.6c1.5,1.4,2.8,3.1,3.7,5.1L341.3,186c-0.1-0.6-0.2-1.3-0.2-1.9c0-0.7,0.1-1.4,0.2-2.1l-56.6-22.2
				C281.9,164.6,276.6,167.9,270.6,167.9 M578.8,166.9c2.9,3,4.7,7,4.7,11.5c0,2.4-0.5,4.6-1.4,6.6l39.6,36.5
				c1.4-0.4,2.9-0.7,4.5-0.7c0.9,0,1.9,0.1,2.8,0.3l12.6-34.6c-12.4-17.6-31.6-29.8-53.4-31.4L578.8,166.9z M242.2,144.4
				c0.7,8.1-1.5,11.8-9.5,14.6c-29.9,10.6-49.8,37.7-51.2,68.1c2-0.3,3.9-0.6,5.7-0.9c0.3-8.8,7.5-15.9,16.4-15.9
				c1.9,0,3.7,0.4,5.4,1l47.8-50.8c-1.7-2.6-2.7-5.7-2.7-9c0-2.2,0.5-4.3,1.3-6.3L242,130.5C241.8,135.1,241.8,139.7,242.2,144.4
				 M371.7,175.7c1.5,2.5,2.4,5.3,2.4,8.4c0,0.8-0.1,1.5-0.2,2.3l88.4,24.3c1-2.6,2.7-4.9,4.8-6.7l-42.9-79.5
				c-1.5,0.4-3.1,0.8-4.7,0.8c-1.8,0-3.5-0.4-5.1-0.9L371.7,175.7z M519.7,124.2c-0.2,0-0.5-0.1-0.7-0.1l-32.3,78.8
				c1.9,1.3,3.5,3,4.7,4.9l59.9-24.7c-0.5-1.5-0.8-3-0.8-4.7c0-4.5,1.8-8.5,4.7-11.5c-6.6-10.6-18-28.5-28.2-44.5
				C524.8,123.5,522.4,124.2,519.7,124.2 M435.8,110.9c-0.5,4.2-2.6,7.8-5.7,10.4l42.9,79.5c1.5-0.4,3-0.8,4.7-0.8c1,0,2,0.1,3,0.3
				l31.9-78c-4.6-2.2-8-6.5-9-11.7L435.8,110.9z M535.8,104.2c0.2,1.1,0.4,2.3,0.4,3.5c0,4-1.5,7.7-3.9,10.5
				c9.9,15.5,21.4,33.6,28.5,45c1.9-0.8,4.1-1.3,6.3-1.3c2.2,0,4.3,0.5,6.2,1.2l7.1-8.9c-6.4-1.4-8.3-5.3-9.1-13.1
				c-1.7-16.4-7.4-30.8-16-42.7L535.8,104.2z M276,136c6.4,2.2,11,8.3,11,15.5c0,0.7-0.1,1.3-0.2,2l56.7,22.3c1.5-2.5,3.7-4.6,6.3-6
				l-40.9-87.9c-1.3,0.3-2.5,0.5-3.9,0.5c-2,0-3.9-0.4-5.6-1.1L276,136z M314.8,79l41.3,88.8c0.5,0,0.9-0.1,1.4-0.1
				c3.6,0,6.9,1.2,9.6,3.1l41.4-49.8c-3.4-3-5.5-7.3-5.5-12.2c0-1.1,0.1-2.2,0.3-3.3l-85-30.1C317.4,76.8,316.2,78,314.8,79
				 M518.2,91.4c0.5,0,1-0.1,1.5-0.1c5.5,0,10.4,2.7,13.3,6.9l17.8-5.2c-11.3-13.2-26.2-22.7-42.8-27.3L518.2,91.4z M458.4,66.9
				l-29.8,28.2c3.2,2.1,5.7,5.4,6.8,9.2l68.4-0.2c1-4.7,4.1-8.7,8.2-10.9L500.3,64c-5-0.9-10.1-1.4-15.2-1.4
				C476.2,62.6,467.2,64,458.4,66.9 M242.7,121.5l16.6,18.1c2.6-2.5,6-4.1,9.9-4.5l24.5-57.4c-3.2-3-5.1-7.2-5.1-11.9
				c0-2,0.4-4,1.1-5.7l-7.4-6.1C261.9,69.2,246.3,92.5,242.7,121.5 M416.4,92.8c1-0.2,2-0.4,3.1-0.4c0.7,0,1.4,0.1,2.1,0.2l17.9-17
				c-0.5,0.3-1.1,0.6-1.6,0.9c-6.4,4.1-9.3,3.4-14-2.5c-6.6-8.3-13.7-15.2-21.3-21L416.4,92.8z M287.9,50.2l5.3,4.3
				c3-3.1,7.2-5.1,11.8-5.1c2.7,0,5.3,0.7,7.5,1.9l12.4-15.6C312,37.8,299.3,42.8,287.9,50.2 M334.2,34.6l-16.6,20.9
				c2.3,2.8,3.8,6.4,3.8,10.4c0,1.2-0.1,2.3-0.4,3.5l85,30.1c1.1-1.6,2.6-3,4.3-4.1l-16.8-48.3c-14.7-8.6-31.2-12.9-49.2-12.9
				C341,34.2,337.6,34.3,334.2,34.6"/>
		</defs>
		<clipPath id="SVGID_2_">
			<use xlink:href="#SVGID_1_"  overflow="visible"/>
		</clipPath>
		<g clip-path="url(#SVGID_2_)">
			
				<linearGradient id="SVGID_3_" gradientUnits="userSpaceOnUse" x1="-124.1174" y1="153.3104" x2="-122.7816" y2="153.3104" gradientTransform="matrix(252.2585 -173.6477 173.6477 252.2585 4887.9863 -59904.9688)">
				<stop  offset="0" style="stop-color:#01AFD3"/>
				<stop  offset="1" style="stop-color:#E43F94"/>
			</linearGradient>
			<polygon fill="url(#SVGID_3_)" points="53.5,122.3 503.5,-187.5 784.1,220.1 334.1,529.9 			"/>
		</g>
	</g>
</g>
</svg>
